<svg width="150" height="50" viewBox="0 0 150 50" fill="none" xmlns="http://www.w3.org/2000/svg">
<rect x="1" y="1" width="148" height="48" rx="9" fill="white" stroke="black" stroke-width="2"/>
<path d="M20.792 35.8C20.792 36.92 20.512 37.7333 19.952 38.24C19.4054 38.7467 18.552 39 17.392 39H17.132C15.972 39 15.112 38.7467 14.552 38.24C14.0054 37.7333 13.732 36.92 13.732 35.8V32.2C13.732 31.08 14.0054 30.2667 14.552 29.76C15.112 29.2533 15.972 29 17.132 29H17.392C18.552 29 19.4054 29.2533 19.952 29.76C20.512 30.2667 20.792 31.08 20.792 32.2V35.8ZM19.092 31.8C19.092 31.3867 18.9654 31.0667 18.712 30.84C18.4587 30.6133 18.0854 30.5 17.592 30.5H16.932C16.4387 30.5 16.0654 30.6133 15.812 30.84C15.5587 31.0667 15.432 31.3867 15.432 31.8V36.2C15.432 36.6133 15.5587 36.9333 15.812 37.16C16.0654 37.3867 16.4387 37.5 16.932 37.5H17.592C18.0854 37.5 18.4587 37.3867 18.712 37.16C18.9654 36.9333 19.092 36.6133 19.092 36.2V31.8ZM23.1953 29H24.7953V29.48C25.2086 29.16 25.742 29 26.3953 29H26.7153C27.8886 29 28.7486 29.2533 29.2953 29.76C29.842 30.2533 30.1153 31.0667 30.1153 32.2V35.8C30.1153 36.92 29.8353 37.7333 29.2753 38.24C28.7286 38.7467 27.8753 39 26.7153 39H24.8953V42.4H23.1953V29ZM26.1953 30.5C25.7553 30.5 25.4286 30.62 25.2153 30.86C25.002 31.0867 24.8953 31.3333 24.8953 31.6V37.5H26.9153C27.4086 37.5 27.782 37.3867 28.0353 37.16C28.2886 36.9333 28.4153 36.6133 28.4153 36.2V31.8C28.4153 31.3867 28.2886 31.0667 28.0353 30.84C27.782 30.6133 27.4086 30.5 26.9153 30.5H26.1953ZM35.7172 39C34.5439 39 33.6839 38.7533 33.1372 38.26C32.5905 37.7533 32.3172 36.9333 32.3172 35.8V32.2C32.3172 31.0533 32.5639 30.2333 33.0572 29.74C33.5505 29.2467 34.3705 29 35.5172 29H36.0572C37.0039 29 37.7172 29.2667 38.1972 29.8C38.6905 30.32 38.9372 31.0867 38.9372 32.1V34.7H34.0172V36.2C34.0172 36.6133 34.1439 36.9333 34.3972 37.16C34.6505 37.3867 35.0239 37.5 35.5172 37.5H38.2972V39H35.7172ZM37.2772 33.2V31.7C37.2772 31.3533 37.1639 31.0667 36.9372 30.84C36.7105 30.6133 36.4239 30.5 36.0772 30.5H35.3172C34.8372 30.5 34.4972 30.6133 34.2972 30.84C34.1105 31.0533 34.0172 31.3733 34.0172 31.8V33.2H37.2772ZM41.2336 29H42.8336V29.48C43.2469 29.16 43.7803 29 44.4336 29H44.9536C46.0336 29 46.8336 29.2533 47.3536 29.76C47.8869 30.2667 48.1536 31.08 48.1536 32.2V39H46.4536V31.8C46.4536 31.4 46.3336 31.0867 46.0936 30.86C45.8669 30.62 45.5536 30.5 45.1536 30.5H44.2336C43.7936 30.5 43.4669 30.62 43.2536 30.86C43.0403 31.0867 42.9336 31.3333 42.9336 31.6V39H41.2336V29ZM61.1484 39C60.9751 39 60.7818 38.9467 60.5684 38.84C60.3684 38.7333 60.1951 38.5867 60.0484 38.4C59.7418 38.8 59.3351 39 58.8284 39H57.4484C56.4351 39 55.6951 38.8 55.2284 38.4C54.7751 37.9867 54.5484 37.2867 54.5484 36.3V35.9C54.5484 33.8333 55.5218 32.8 57.4684 32.8H59.5484V31.8C59.5484 31.3867 59.4218 31.0667 59.1684 30.84C58.9151 30.6133 58.5418 30.5 58.0484 30.5H55.3484V29H57.8484C59.0084 29 59.8618 29.2533 60.4084 29.76C60.9684 30.2667 61.2484 31.08 61.2484 32.2V37C61.2484 37.2 61.3218 37.3533 61.4684 37.46C61.6284 37.5533 61.8884 37.6 62.2484 37.6V39H61.1484ZM58.6284 37.5C59.0284 37.5 59.2818 37.4067 59.3884 37.22C59.4951 37.0333 59.5484 36.7933 59.5484 36.5V34.3H57.4484C57.1018 34.3 56.8151 34.4133 56.5884 34.64C56.3618 34.8667 56.2484 35.1533 56.2484 35.5V36.5C56.2484 36.8467 56.3284 37.1 56.4884 37.26C56.6484 37.42 56.9018 37.5 57.2484 37.5H58.6284ZM69.023 38.54C68.583 38.8467 68.0496 39 67.423 39H67.143C66.063 39 65.2563 38.7467 64.723 38.24C64.203 37.7333 63.943 36.92 63.943 35.8V29H65.643V36.2C65.643 36.6 65.7563 36.92 65.983 37.16C66.223 37.3867 66.543 37.5 66.943 37.5H67.623C68.0496 37.5 68.363 37.3933 68.563 37.18C68.7763 36.9667 68.8963 36.7267 68.923 36.46V29H70.623V39H69.023V38.54ZM78.4481 38.54C78.0081 38.8467 77.4748 39 76.8481 39H76.4281C75.2548 39 74.3948 38.7533 73.8481 38.26C73.3015 37.7533 73.0281 36.9333 73.0281 35.8V32.2C73.0281 31.08 73.3015 30.2667 73.8481 29.76C74.4081 29.2533 75.2681 29 76.4281 29H78.3481V25H80.0481V39H78.4481V38.54ZM77.0481 37.5C77.4881 37.5 77.8148 37.3867 78.0281 37.16C78.2415 36.92 78.3481 36.6667 78.3481 36.4V30.5H76.2281C75.7348 30.5 75.3615 30.6133 75.1081 30.84C74.8548 31.0667 74.7281 31.3867 74.7281 31.8V36.2C74.7281 36.6133 74.8548 36.9333 75.1081 37.16C75.3615 37.3867 75.7348 37.5 76.2281 37.5H77.0481ZM82.5477 26.8V25H84.4477V26.8H82.5477ZM82.6477 39V29H84.3477V39H82.6477ZM93.81 35.8C93.81 36.92 93.53 37.7333 92.97 38.24C92.4233 38.7467 91.57 39 90.41 39H90.15C88.99 39 88.13 38.7467 87.57 38.24C87.0233 37.7333 86.75 36.92 86.75 35.8V32.2C86.75 31.08 87.0233 30.2667 87.57 29.76C88.13 29.2533 88.99 29 90.15 29H90.41C91.57 29 92.4233 29.2533 92.97 29.76C93.53 30.2667 93.81 31.08 93.81 32.2V35.8ZM92.11 31.8C92.11 31.3867 91.9833 31.0667 91.73 30.84C91.4767 30.6133 91.1033 30.5 90.61 30.5H89.95C89.4567 30.5 89.0833 30.6133 88.83 30.84C88.5767 31.0667 88.45 31.3867 88.45 31.8V36.2C88.45 36.6133 88.5767 36.9333 88.83 37.16C89.0833 37.3867 89.4567 37.5 89.95 37.5H90.61C91.1033 37.5 91.4767 37.3867 91.73 37.16C91.9833 36.9333 92.11 36.6133 92.11 36.2V31.8ZM106.089 36.5C106.089 37.34 105.829 37.9667 105.309 38.38C104.802 38.7933 104.062 39 103.089 39H100.509V37.5H103.289C103.649 37.5 103.922 37.4267 104.109 37.28C104.295 37.12 104.389 36.8933 104.389 36.6V35.54C104.389 34.94 104.102 34.64 103.529 34.64H103.189C102.255 34.64 101.555 34.44 101.089 34.04C100.635 33.6267 100.409 32.98 100.409 32.1V31.52C100.409 30.6267 100.662 29.9867 101.169 29.6C101.675 29.2 102.422 29 103.409 29H105.689V30.5H103.209C102.875 30.5 102.609 30.58 102.409 30.74C102.209 30.8867 102.109 31.1067 102.109 31.4V32.12C102.109 32.4267 102.195 32.6533 102.369 32.8C102.555 32.9467 102.789 33.02 103.069 33.02H103.349C104.242 33.02 104.922 33.24 105.389 33.68C105.855 34.1067 106.089 34.7467 106.089 35.6V36.5ZM110.397 39C109.717 39 109.197 38.78 108.837 38.34C108.477 37.9 108.297 37.32 108.297 36.6V30.5H106.997V29H108.297V26.6H109.997V29H112.317V30.5H109.997V36.7C109.997 36.9933 110.07 37.2 110.217 37.32C110.364 37.44 110.59 37.5 110.897 37.5H112.317V39H110.397ZM119.708 39C119.534 39 119.341 38.9467 119.128 38.84C118.928 38.7333 118.754 38.5867 118.608 38.4C118.301 38.8 117.894 39 117.388 39H116.008C114.994 39 114.254 38.8 113.788 38.4C113.334 37.9867 113.108 37.2867 113.108 36.3V35.9C113.108 33.8333 114.081 32.8 116.028 32.8H118.108V31.8C118.108 31.3867 117.981 31.0667 117.728 30.84C117.474 30.6133 117.101 30.5 116.608 30.5H113.908V29H116.408C117.568 29 118.421 29.2533 118.968 29.76C119.528 30.2667 119.808 31.08 119.808 32.2V37C119.808 37.2 119.881 37.3533 120.028 37.46C120.188 37.5533 120.448 37.6 120.808 37.6V39H119.708ZM117.188 37.5C117.588 37.5 117.841 37.4067 117.948 37.22C118.054 37.0333 118.108 36.7933 118.108 36.5V34.3H116.008C115.661 34.3 115.374 34.4133 115.148 34.64C114.921 34.8667 114.808 35.1533 114.808 35.5V36.5C114.808 36.8467 114.888 37.1 115.048 37.26C115.208 37.42 115.461 37.5 115.808 37.5H117.188ZM125.802 39C124.629 39 123.769 38.7533 123.222 38.26C122.676 37.7533 122.402 36.9333 122.402 35.8V32.2C122.402 31.08 122.676 30.2667 123.222 29.76C123.782 29.2533 124.642 29 125.802 29H127.982V30.5H125.602C125.109 30.5 124.736 30.6133 124.482 30.84C124.229 31.0667 124.102 31.3867 124.102 31.8V36.2C124.102 36.6133 124.229 36.9333 124.482 37.16C124.736 37.3867 125.109 37.5 125.602 37.5H127.982V39H125.802ZM134.991 39L132.251 34.06L131.691 34.72V39H129.991V25H131.691V32.48L134.691 29H136.831L133.451 32.86L136.971 39H134.991Z" fill="black"/>
<path d="M0 10C0 4.47715 4.47715 0 10 0H140C145.523 0 150 4.47715 150 10V19H0V10Z" fill="black"/>
<path d="M42.92 5.432C43.976 5.432 44.744 5.652 45.224 6.092C45.704 6.532 45.944 7.152 45.944 7.952C45.944 8.304 45.888 8.644 45.776 8.972C45.672 9.292 45.496 9.58 45.248 9.836C45 10.092 44.668 10.296 44.252 10.448C43.844 10.592 43.34 10.664 42.74 10.664H41.828V14H40.76V5.432H42.92ZM42.836 6.356H41.828V9.74H42.62C43.116 9.74 43.528 9.684 43.856 9.572C44.184 9.452 44.428 9.264 44.588 9.008C44.756 8.752 44.84 8.416 44.84 8C44.84 7.448 44.676 7.036 44.348 6.764C44.028 6.492 43.524 6.356 42.836 6.356ZM54.6594 9.704C54.6594 10.368 54.5794 10.972 54.4194 11.516C54.2594 12.052 54.0234 12.516 53.7114 12.908C53.3994 13.3 53.0114 13.6 52.5474 13.808C52.0834 14.016 51.5474 14.12 50.9394 14.12C50.3074 14.12 49.7554 14.016 49.2834 13.808C48.8194 13.592 48.4314 13.292 48.1194 12.908C47.8154 12.516 47.5874 12.048 47.4354 11.504C47.2834 10.96 47.2074 10.356 47.2074 9.692C47.2074 8.812 47.3434 8.044 47.6154 7.388C47.8874 6.732 48.2994 6.22 48.8514 5.852C49.4114 5.484 50.1114 5.3 50.9514 5.3C51.7594 5.3 52.4394 5.484 52.9914 5.852C53.5434 6.212 53.9594 6.724 54.2394 7.388C54.5194 8.044 54.6594 8.816 54.6594 9.704ZM48.3354 9.704C48.3354 10.424 48.4274 11.044 48.6114 11.564C48.7954 12.084 49.0794 12.484 49.4634 12.764C49.8554 13.044 50.3474 13.184 50.9394 13.184C51.5394 13.184 52.0314 13.044 52.4154 12.764C52.7994 12.484 53.0794 12.084 53.2554 11.564C53.4394 11.044 53.5314 10.424 53.5314 9.704C53.5314 8.624 53.3234 7.78 52.9074 7.172C52.4994 6.556 51.8474 6.248 50.9514 6.248C50.3514 6.248 49.8554 6.388 49.4634 6.668C49.0794 6.94 48.7954 7.336 48.6114 7.856C48.4274 8.368 48.3354 8.984 48.3354 9.704ZM65.6222 5.432L63.4862 14H62.3942L60.8702 8.384C60.8222 8.216 60.7742 8.044 60.7262 7.868C60.6862 7.692 60.6462 7.524 60.6062 7.364C60.5662 7.204 60.5342 7.068 60.5102 6.956C60.4862 6.836 60.4702 6.748 60.4622 6.692C60.4542 6.748 60.4382 6.836 60.4142 6.956C60.3902 7.068 60.3622 7.204 60.3302 7.364C60.2982 7.524 60.2582 7.696 60.2102 7.88C60.1702 8.056 60.1262 8.236 60.0782 8.42L58.5902 14H57.4862L55.3622 5.432H56.4782L57.7142 10.664C57.7542 10.848 57.7942 11.032 57.8342 11.216C57.8742 11.392 57.9062 11.568 57.9302 11.744C57.9622 11.912 57.9902 12.076 58.0142 12.236C58.0462 12.396 58.0702 12.552 58.0862 12.704C58.1102 12.544 58.1342 12.38 58.1582 12.212C58.1902 12.044 58.2222 11.872 58.2542 11.696C58.2942 11.512 58.3342 11.328 58.3742 11.144C58.4222 10.96 58.4702 10.78 58.5182 10.604L59.9102 5.432H61.0142L62.4662 10.64C62.5142 10.824 62.5582 11.012 62.5982 11.204C62.6462 11.388 62.6862 11.568 62.7182 11.744C62.7582 11.92 62.7902 12.092 62.8142 12.26C62.8462 12.42 62.8742 12.568 62.8982 12.704C62.9222 12.504 62.9542 12.296 62.9942 12.08C63.0342 11.856 63.0782 11.624 63.1262 11.384C63.1822 11.144 63.2382 10.9 63.2942 10.652L64.5182 5.432H65.6222ZM71.3579 14H66.8459V5.432H71.3579V6.38H67.9139V9.056H71.1539V9.992H67.9139V13.052H71.3579V14ZM75.3592 5.432C76.0312 5.432 76.5832 5.524 77.0152 5.708C77.4552 5.884 77.7792 6.152 77.9872 6.512C78.2032 6.872 78.3112 7.324 78.3112 7.868C78.3112 8.324 78.2312 8.704 78.0712 9.008C77.9192 9.312 77.7192 9.556 77.4712 9.74C77.2312 9.916 76.9752 10.056 76.7032 10.16L78.9352 14H77.6872L75.7432 10.46H74.1952V14H73.1272V5.432H75.3592ZM75.2992 6.368H74.1952V9.548H75.3472C75.7792 9.548 76.1312 9.488 76.4032 9.368C76.6832 9.24 76.8872 9.056 77.0152 8.816C77.1432 8.576 77.2072 8.276 77.2072 7.916C77.2072 7.54 77.1392 7.24 77.0032 7.016C76.8672 6.792 76.6552 6.628 76.3672 6.524C76.0872 6.42 75.7312 6.368 75.2992 6.368ZM84.6938 14H80.1818V5.432H84.6938V6.38H81.2498V9.056H84.4898V9.992H81.2498V13.052H84.6938V14ZM92.9311 9.632C92.9311 10.592 92.7631 11.396 92.4271 12.044C92.0911 12.692 91.6071 13.18 90.9751 13.508C90.3511 13.836 89.5951 14 88.7071 14H86.4631V5.432H88.9471C89.7631 5.432 90.4671 5.592 91.0591 5.912C91.6591 6.232 92.1191 6.704 92.4391 7.328C92.7671 7.944 92.9311 8.712 92.9311 9.632ZM91.8031 9.668C91.8031 8.908 91.6871 8.284 91.4551 7.796C91.2231 7.308 90.8831 6.948 90.4351 6.716C89.9951 6.476 89.4551 6.356 88.8151 6.356H87.5311V13.076H88.5991C89.6711 13.076 90.4711 12.792 90.9991 12.224C91.5351 11.648 91.8031 10.796 91.8031 9.668ZM99.9471 5.432C100.619 5.432 101.183 5.5 101.639 5.636C102.095 5.772 102.439 5.996 102.671 6.308C102.903 6.62 103.019 7.036 103.019 7.556C103.019 7.892 102.959 8.192 102.839 8.456C102.727 8.712 102.559 8.928 102.335 9.104C102.111 9.272 101.835 9.388 101.507 9.452V9.512C101.843 9.568 102.143 9.672 102.407 9.824C102.679 9.976 102.891 10.192 103.043 10.472C103.203 10.752 103.283 11.116 103.283 11.564C103.283 12.084 103.167 12.528 102.935 12.896C102.711 13.256 102.391 13.532 101.975 13.724C101.559 13.908 101.059 14 100.475 14H97.6311V5.432H99.9471ZM100.151 9.08C100.823 9.08 101.283 8.964 101.531 8.732C101.787 8.492 101.915 8.14 101.915 7.676C101.915 7.204 101.759 6.868 101.447 6.668C101.143 6.46 100.659 6.356 99.9951 6.356H98.6991V9.08H100.151ZM98.6991 9.98V13.088H100.283C100.979 13.088 101.463 12.94 101.735 12.644C102.015 12.348 102.155 11.96 102.155 11.48C102.155 11.176 102.091 10.912 101.963 10.688C101.843 10.464 101.643 10.292 101.363 10.172C101.083 10.044 100.699 9.98 100.211 9.98H98.6991ZM107.114 9.644L109.178 5.432H110.33L107.654 10.676V14H106.586V10.724L103.898 5.432H105.062L107.114 9.644Z" fill="white"/>
</svg>
